<svg xmlns="http://www.w3.org/2000/svg" width="760" height="460" viewBox="0 0 760 460">
<rect width="100%" height="100%" fill="#ffffff"/>
<text x="84" y="28" font-family="sans-serif" font-size="16">hard_ood: mean relative error vs noise, fraction of field std</text>
<line x1="84" y1="48.00" x2="732" y2="48.00" stroke="#e6e6e6"/>
<text x="76" y="52.00" text-anchor="end" font-family="sans-serif" font-size="11">5.529</text>
<line x1="84" y1="117.60" x2="732" y2="117.60" stroke="#e6e6e6"/>
<text x="76" y="121.60" text-anchor="end" font-family="sans-serif" font-size="11">0.922</text>
<line x1="84" y1="187.20" x2="732" y2="187.20" stroke="#e6e6e6"/>
<text x="76" y="191.20" text-anchor="end" font-family="sans-serif" font-size="11">0.154</text>
<line x1="84" y1="256.80" x2="732" y2="256.80" stroke="#e6e6e6"/>
<text x="76" y="260.80" text-anchor="end" font-family="sans-serif" font-size="11">0.026</text>
<line x1="84" y1="326.40" x2="732" y2="326.40" stroke="#e6e6e6"/>
<text x="76" y="330.40" text-anchor="end" font-family="sans-serif" font-size="11">4.27e-03</text>
<line x1="84" y1="396.00" x2="732" y2="396.00" stroke="#e6e6e6"/>
<text x="76" y="400.00" text-anchor="end" font-family="sans-serif" font-size="11">7.12e-04</text>
<line x1="84.00" y1="48" x2="84.00" y2="396" stroke="#f3f3f3"/>
<text x="84.00" y="414" text-anchor="middle" font-family="sans-serif" font-size="11">0</text>
<line x1="213.60" y1="48" x2="213.60" y2="396" stroke="#f3f3f3"/>
<text x="213.60" y="414" text-anchor="middle" font-family="sans-serif" font-size="11">0.1%</text>
<line x1="343.20" y1="48" x2="343.20" y2="396" stroke="#f3f3f3"/>
<text x="343.20" y="414" text-anchor="middle" font-family="sans-serif" font-size="11">0.5%</text>
<line x1="472.80" y1="48" x2="472.80" y2="396" stroke="#f3f3f3"/>
<text x="472.80" y="414" text-anchor="middle" font-family="sans-serif" font-size="11">1%</text>
<line x1="602.40" y1="48" x2="602.40" y2="396" stroke="#f3f3f3"/>
<text x="602.40" y="414" text-anchor="middle" font-family="sans-serif" font-size="11">2%</text>
<line x1="732.00" y1="48" x2="732.00" y2="396" stroke="#f3f3f3"/>
<text x="732.00" y="414" text-anchor="middle" font-family="sans-serif" font-size="11">5%</text>
<rect x="84" y="48" width="648" height="348" fill="none" stroke="#222222"/>
<line x1="84" y1="203.89" x2="732" y2="203.89" stroke="#888888" stroke-dasharray="5 4"/>
<polyline fill="none" stroke="#b85c38" stroke-width="2" points="84.00,155.28 213.60,155.26 343.20,155.23 472.80,155.35 602.40,156.08 732.00,161.35"/>
<circle cx="84.00" cy="155.28" r="3.5" fill="#b85c38"/>
<circle cx="213.60" cy="155.26" r="3.5" fill="#b85c38"/>
<circle cx="343.20" cy="155.23" r="3.5" fill="#b85c38"/>
<circle cx="472.80" cy="155.35" r="3.5" fill="#b85c38"/>
<circle cx="602.40" cy="156.08" r="3.5" fill="#b85c38"/>
<circle cx="732.00" cy="161.35" r="3.5" fill="#b85c38"/>
<line x1="96" y1="64" x2="120" y2="64" stroke="#b85c38" stroke-width="2"/>
<text x="126" y="68" font-family="sans-serif" font-size="12">closed-form LS</text>
<polyline fill="none" stroke="#1f4e79" stroke-width="2" points="84.00,230.03 213.60,230.26 343.20,222.84 472.80,209.03 602.40,181.33 732.00,125.59"/>
<circle cx="84.00" cy="230.03" r="3.5" fill="#1f4e79"/>
<circle cx="213.60" cy="230.26" r="3.5" fill="#1f4e79"/>
<circle cx="343.20" cy="222.84" r="3.5" fill="#1f4e79"/>
<circle cx="472.80" cy="209.03" r="3.5" fill="#1f4e79"/>
<circle cx="602.40" cy="181.33" r="3.5" fill="#1f4e79"/>
<circle cx="732.00" cy="125.59" r="3.5" fill="#1f4e79"/>
<line x1="96" y1="80" x2="120" y2="80" stroke="#1f4e79" stroke-width="2"/>
<text x="126" y="84" font-family="sans-serif" font-size="12">data-only FNO</text>
<polyline fill="none" stroke="#2f6b4f" stroke-width="2" points="84.00,244.48 213.60,243.87 343.20,235.03 472.80,218.20 602.40,180.38 732.00,121.42"/>
<circle cx="84.00" cy="244.48" r="3.5" fill="#2f6b4f"/>
<circle cx="213.60" cy="243.87" r="3.5" fill="#2f6b4f"/>
<circle cx="343.20" cy="235.03" r="3.5" fill="#2f6b4f"/>
<circle cx="472.80" cy="218.20" r="3.5" fill="#2f6b4f"/>
<circle cx="602.40" cy="180.38" r="3.5" fill="#2f6b4f"/>
<circle cx="732.00" cy="121.42" r="3.5" fill="#2f6b4f"/>
<line x1="96" y1="96" x2="120" y2="96" stroke="#2f6b4f" stroke-width="2"/>
<text x="126" y="100" font-family="sans-serif" font-size="12">hybrid FNO</text>
<polyline fill="none" stroke="#6b4c9a" stroke-width="2" points="84.00,72.00 213.60,72.00 343.20,72.00 472.80,72.00 602.40,72.00 732.00,72.00"/>
<circle cx="84.00" cy="72.00" r="3.5" fill="#6b4c9a"/>
<circle cx="213.60" cy="72.00" r="3.5" fill="#6b4c9a"/>
<circle cx="343.20" cy="72.00" r="3.5" fill="#6b4c9a"/>
<circle cx="472.80" cy="72.00" r="3.5" fill="#6b4c9a"/>
<circle cx="602.40" cy="72.00" r="3.5" fill="#6b4c9a"/>
<circle cx="732.00" cy="72.00" r="3.5" fill="#6b4c9a"/>
<line x1="96" y1="112" x2="120" y2="112" stroke="#6b4c9a" stroke-width="2"/>
<text x="126" y="116" font-family="sans-serif" font-size="12">training mean</text>
<polyline fill="none" stroke="#5c5c5c" stroke-width="2" points="84.00,372.00 213.60,372.00 343.20,372.00 472.80,372.00 602.40,372.00 732.00,372.00"/>
<circle cx="84.00" cy="372.00" r="3.5" fill="#5c5c5c"/>
<circle cx="213.60" cy="372.00" r="3.5" fill="#5c5c5c"/>
<circle cx="343.20" cy="372.00" r="3.5" fill="#5c5c5c"/>
<circle cx="472.80" cy="372.00" r="3.5" fill="#5c5c5c"/>
<circle cx="602.40" cy="372.00" r="3.5" fill="#5c5c5c"/>
<circle cx="732.00" cy="372.00" r="3.5" fill="#5c5c5c"/>
<line x1="96" y1="128" x2="120" y2="128" stroke="#5c5c5c" stroke-width="2"/>
<text x="126" y="132" font-family="sans-serif" font-size="12">dense LS</text>
<text x="408.00" y="444" text-anchor="middle" font-family="sans-serif" font-size="13">noise, fraction of field std</text>
<text x="18" y="222.00" text-anchor="middle" transform="rotate(-90 18 222.00)" font-family="sans-serif" font-size="13">mean relative error</text>
</svg>
