<svg xmlns="http://www.w3.org/2000/svg" width="720" height="440" viewBox="0 0 720 440">
<rect width="100%" height="100%" fill="#ffffff"/>
<text x="78" y="28" font-family="sans-serif" font-size="16">Spatial convergence, periodic Burgers</text>
<line x1="78.00" y1="46" x2="78.00" y2="382" stroke="#e6e6e6"/>
<line x1="78" y1="46.00" x2="696" y2="46.00" stroke="#e6e6e6"/>
<text x="78.00" y="400" text-anchor="middle" font-family="sans-serif" font-size="11">32</text>
<text x="70" y="50.00" text-anchor="end" font-family="sans-serif" font-size="11">1.1e-03</text>
<line x1="201.60" y1="46" x2="201.60" y2="382" stroke="#e6e6e6"/>
<line x1="78" y1="113.20" x2="696" y2="113.20" stroke="#e6e6e6"/>
<text x="201.60" y="400" text-anchor="middle" font-family="sans-serif" font-size="11">64</text>
<text x="70" y="117.20" text-anchor="end" font-family="sans-serif" font-size="11">3.4e-06</text>
<line x1="325.20" y1="46" x2="325.20" y2="382" stroke="#e6e6e6"/>
<line x1="78" y1="180.40" x2="696" y2="180.40" stroke="#e6e6e6"/>
<text x="325.20" y="400" text-anchor="middle" font-family="sans-serif" font-size="11">128</text>
<text x="70" y="184.40" text-anchor="end" font-family="sans-serif" font-size="11">9.9e-09</text>
<line x1="448.80" y1="46" x2="448.80" y2="382" stroke="#e6e6e6"/>
<line x1="78" y1="247.60" x2="696" y2="247.60" stroke="#e6e6e6"/>
<text x="448.80" y="400" text-anchor="middle" font-family="sans-serif" font-size="11">256</text>
<text x="70" y="251.60" text-anchor="end" font-family="sans-serif" font-size="11">2.9e-11</text>
<line x1="572.40" y1="46" x2="572.40" y2="382" stroke="#e6e6e6"/>
<line x1="78" y1="314.80" x2="696" y2="314.80" stroke="#e6e6e6"/>
<text x="572.40" y="400" text-anchor="middle" font-family="sans-serif" font-size="11">512</text>
<text x="70" y="318.80" text-anchor="end" font-family="sans-serif" font-size="11">8.6e-14</text>
<line x1="696.00" y1="46" x2="696.00" y2="382" stroke="#e6e6e6"/>
<line x1="78" y1="382.00" x2="696" y2="382.00" stroke="#e6e6e6"/>
<text x="696.00" y="400" text-anchor="middle" font-family="sans-serif" font-size="11">1.0e+03</text>
<text x="70" y="386.00" text-anchor="end" font-family="sans-serif" font-size="11">2.5e-16</text>
<rect x="78" y="46" width="618" height="336" fill="none" stroke="#222222"/>
<polyline fill="none" stroke="#1f4e79" stroke-width="2" points="78.00,46.00 201.60,102.59 325.20,208.51 448.80,316.54 572.40,316.55"/>
<circle cx="78.00" cy="46.00" r="3.5" fill="#1f4e79"/>
<circle cx="201.60" cy="102.59" r="3.5" fill="#1f4e79"/>
<circle cx="325.20" cy="208.51" r="3.5" fill="#1f4e79"/>
<circle cx="448.80" cy="316.54" r="3.5" fill="#1f4e79"/>
<circle cx="572.40" cy="316.55" r="3.5" fill="#1f4e79"/>
<line x1="516" y1="62" x2="546" y2="62" stroke="#1f4e79" stroke-width="2"/>
<text x="552" y="66" font-family="sans-serif" font-size="12">Cole-Hopf a=0.99</text>
<polyline fill="none" stroke="#b85c38" stroke-width="2" points="201.60,308.41 325.20,308.42 448.80,308.41 572.40,308.42 696.00,308.42"/>
<circle cx="201.60" cy="308.41" r="3.5" fill="#b85c38"/>
<circle cx="325.20" cy="308.42" r="3.5" fill="#b85c38"/>
<circle cx="448.80" cy="308.41" r="3.5" fill="#b85c38"/>
<circle cx="572.40" cy="308.42" r="3.5" fill="#b85c38"/>
<circle cx="696.00" cy="308.42" r="3.5" fill="#b85c38"/>
<line x1="516" y1="80" x2="546" y2="80" stroke="#b85c38" stroke-width="2"/>
<text x="552" y="84" font-family="sans-serif" font-size="12">Cole-Hopf a=0.5</text>
<polyline fill="none" stroke="#2f6b4f" stroke-width="2" points="325.20,381.94 448.80,375.71 572.40,382.00"/>
<circle cx="325.20" cy="381.94" r="3.5" fill="#2f6b4f"/>
<circle cx="448.80" cy="375.71" r="3.5" fill="#2f6b4f"/>
<circle cx="572.40" cy="382.00" r="3.5" fill="#2f6b4f"/>
<line x1="516" y1="98" x2="546" y2="98" stroke="#2f6b4f" stroke-width="2"/>
<text x="552" y="102" font-family="sans-serif" font-size="12">Unforced vs N=1024</text>
<text x="387.0" y="428" text-anchor="middle" font-family="sans-serif" font-size="13">N</text>
<text x="18" y="214.0" text-anchor="middle" transform="rotate(-90 18 214.0)" font-family="sans-serif" font-size="13">relative L2 at t_final</text>
</svg>
